<svg id="Capa_1" data-name="Capa 1" xmlns="http://www.w3.org/2000/svg" xmlns:xlink="http://www.w3.org/1999/xlink" viewBox="0 0 48 48"><defs><style>.cls-1{fill:none;}.cls-2{fill:#6211f9;}.cls-3{clip-path:url(#clip-path);}.cls-4{clip-path:url(#clip-path-2);}.cls-5{clip-path:url(#clip-path-3);}.cls-6{clip-path:url(#clip-path-4);}.cls-7{fill:#fff;}</style><clipPath id="clip-path"><path class="cls-1" d="M-117.68,110.86a14,14,0,0,0-12.64,0L-173.79,136a14,14,0,0,0-6.32,11V197.1a14,14,0,0,0,6.32,11l43.47,25.1a14,14,0,0,0,12.64,0L-74.21,208a14,14,0,0,0,6.32-11V146.9a14,14,0,0,0-6.32-11Z"/></clipPath><clipPath id="clip-path-2"><polygon class="cls-2" points="-123.72 107.42 -179.79 139.78 -179.79 204.52 -123.72 236.89 -67.66 204.52 -67.66 139.78 -123.72 107.42"/></clipPath><clipPath id="clip-path-3"><path class="cls-1" d="M30.32,110.86a14,14,0,0,0-12.64,0L-25.79,136a14,14,0,0,0-6.32,11V197.1a14,14,0,0,0,6.32,11l43.47,25.1a14,14,0,0,0,12.64,0L73.79,208a14,14,0,0,0,6.32-11V146.9a14,14,0,0,0-6.32-11Z"/></clipPath><clipPath id="clip-path-4"><polygon points="24.27 107.42 -31.79 139.78 -31.79 204.52 24.27 236.89 80.34 204.52 80.34 139.78 24.27 107.42"/></clipPath></defs><title>logo-white-48x48</title><g class="cls-3"><polygon class="cls-2" points="-123.72 107.42 -179.79 139.78 -179.79 204.52 -123.72 236.89 -67.66 204.52 -67.66 139.78 -123.72 107.42"/><g class="cls-4"><polygon class="cls-2" points="-136.41 161.6 -134.43 65.22 -49.97 18.76 32.5 68.67 30.52 165.04 -53.94 211.51 -136.41 161.6"/></g></g><g class="cls-5"><polygon points="24.27 107.42 -31.79 139.78 -31.79 204.52 24.27 236.89 80.34 204.52 80.34 139.78 24.27 107.42"/><g class="cls-6"><polygon points="11.59 161.6 13.57 65.22 98.03 18.76 180.5 68.67 178.51 165.04 94.06 211.51 11.59 161.6"/></g></g><path class="cls-7" d="M43.07,10.19,26.42.58a5.37,5.37,0,0,0-4.84,0L4.93,10.19a5.37,5.37,0,0,0-2.42,4.2V33.61a5.37,5.37,0,0,0,2.42,4.2l16.65,9.61a5.37,5.37,0,0,0,4.84,0l16.65-9.61a5.37,5.37,0,0,0,2.42-4.2V14.39A5.37,5.37,0,0,0,43.07,10.19ZM40.82,30.35a6.17,6.17,0,0,1-2.91,5l-11,6.35a6.17,6.17,0,0,1-5.83,0l-11-6.35a6.17,6.17,0,0,1-2.91-5V24.8a2.53,2.53,0,0,1,5.07,0v5.53a1.35,1.35,0,0,0,.39.67l11,6.34a1.35,1.35,0,0,0,.78,0l11-6.34a1.35,1.35,0,0,0,.39-.67V17.66a1.35,1.35,0,0,0-.39-.67l-11-6.34a1.35,1.35,0,0,0-.78,0l-8.83,5.1,5.94,3.42A5.83,5.83,0,1,1,18.18,24q0-.21,0-.43L10.1,18.9a3.67,3.67,0,0,1-1.95-3.14,3.67,3.67,0,0,1,1.95-3.15l11-6.35a6.17,6.17,0,0,1,5.83,0l11,6.35a6.17,6.17,0,0,1,2.91,5Z"/></svg>